<?xml version="1.0" encoding="UTF-8"?><svg id="Laag_1" xmlns="http://www.w3.org/2000/svg" xmlns:xlink="http://www.w3.org/1999/xlink" viewBox="0 0 537.6 621.77"><defs><style>.cls-1{fill:none;}.cls-2{fill:#282d26;}.cls-3{clip-path:url(#clippath);}</style><clipPath id="clippath"><rect class="cls-1" width="537.6" height="621.77"/></clipPath></defs><g class="cls-3"><path class="cls-2" d="M298.85,428.84l-108.96-273.73-91.84,246.95-3.01-28.67L232.73,3.43l11.7.05c61.38,147.53,122.44,295.22,182.69,443.23,12.86,31.59,24.57,63.81,37.98,95.16,8.77,20.51,22.55,51.87,43.58,62.04,8.83,4.27,19.23,4.54,28.91,4.93v12.64h-225.36v-13.39c10.67.69,19.91-1.5,27.16-9.66,16.25-18.29,6.05-50.54-1.11-71.06-10.05-28.8-23.33-57.03-34.2-85.56l-198.9-.3-2.69-12.69h196.35Z"/><path class="cls-2" d="M306.29,621.49c-95.95,3.72-190.29-29.91-248.28-108.36C-13.93,415.78-17.48,242.52,39.15,137.49,77.69,66.01,146.29,20.33,225.96,6.34l-5.4,13.94c-103.47,34.37-127.2,153.87-132.21,249.74-4.81,92.14,2.08,242.27,80.74,304.58,39.16,31.02,88.76,35.46,137.19,34.25v12.65Z"/><path class="cls-2" d="M489.25,219.82l-.37,193.4h-12.27c-3.98-48.86-46.99-78.22-92.07-85.69l-8.36-20.99c13.73-3.2,27.61-6.01,40.69-11.45,32.28-13.42,56.31-39.35,59.74-75.26h12.64Z"/><path class="cls-2" d="M490,184.11h-13.39c-3.27-52.64-22.61-106.66-65.53-139.39C366.59,10.78,308.44,4.79,254.2,11.97l-3.69-9.36C276.69.07,303.39-.45,329.75.34c50.79,1.54,108.22,9.71,150.97,38.7,3.21,2.18,9.32,5.31,9.32,9.27l-.04,135.8Z"/></g></svg>